solid ASCII
  facet normal 1.000000e+00 0.000000e+00 0.000000e+00
    outer loop
      vertex   -1.012881e+02 -8.680000e+01 1.275000e+01
      vertex   -1.012881e+02 -8.010000e+01 1.275000e+01
      vertex   -1.012881e+02 -8.680000e+01 1.325000e+01
    endloop
  endfacet
  facet normal 1.000000e+00 -0.000000e+00 0.000000e+00
    outer loop
      vertex   -1.012881e+02 -8.680000e+01 1.325000e+01
      vertex   -1.012881e+02 -8.010000e+01 1.275000e+01
      vertex   -1.012881e+02 -8.010000e+01 1.325000e+01
    endloop
  endfacet
  facet normal 0.000000e+00 -1.000000e+00 0.000000e+00
    outer loop
      vertex   -1.012881e+02 -8.010000e+01 1.275000e+01
      vertex   -8.771185e+01 -8.010000e+01 1.275000e+01
      vertex   -1.012881e+02 -8.010000e+01 1.325000e+01
    endloop
  endfacet
  facet normal 0.000000e+00 -1.000000e+00 0.000000e+00
    outer loop
      vertex   -1.012881e+02 -8.010000e+01 1.325000e+01
      vertex   -8.771185e+01 -8.010000e+01 1.275000e+01
      vertex   -8.771185e+01 -8.010000e+01 1.325000e+01
    endloop
  endfacet
  facet normal -1.000000e+00 -2.121023e-15 0.000000e+00
    outer loop
      vertex   -8.771185e+01 -8.010000e+01 1.275000e+01
      vertex   -8.771185e+01 -8.680000e+01 1.275000e+01
      vertex   -8.771185e+01 -8.010000e+01 1.325000e+01
    endloop
  endfacet
  facet normal -1.000000e+00 -2.121023e-15 0.000000e+00
    outer loop
      vertex   -8.771185e+01 -8.010000e+01 1.325000e+01
      vertex   -8.771185e+01 -8.680000e+01 1.275000e+01
      vertex   -8.771185e+01 -8.680000e+01 1.325000e+01
    endloop
  endfacet
  facet normal 0.000000e+00 1.000000e+00 -0.000000e+00
    outer loop
      vertex   -8.771185e+01 -8.680000e+01 1.275000e+01
      vertex   -1.012881e+02 -8.680000e+01 1.275000e+01
      vertex   -8.771185e+01 -8.680000e+01 1.325000e+01
    endloop
  endfacet
  facet normal 0.000000e+00 1.000000e+00 0.000000e+00
    outer loop
      vertex   -8.771185e+01 -8.680000e+01 1.325000e+01
      vertex   -1.012881e+02 -8.680000e+01 1.275000e+01
      vertex   -1.012881e+02 -8.680000e+01 1.325000e+01
    endloop
  endfacet
  facet normal 0.000000e+00 0.000000e+00 -1.000000e+00
    outer loop
      vertex   -8.771185e+01 -8.680000e+01 1.325000e+01
      vertex   -1.012881e+02 -8.680000e+01 1.325000e+01
      vertex   -8.771185e+01 -8.010000e+01 1.325000e+01
    endloop
  endfacet
  facet normal -0.000000e+00 0.000000e+00 -1.000000e+00
    outer loop
      vertex   -8.771185e+01 -8.010000e+01 1.325000e+01
      vertex   -1.012881e+02 -8.680000e+01 1.325000e+01
      vertex   -1.012881e+02 -8.010000e+01 1.325000e+01
    endloop
  endfacet
  facet normal -0.000000e+00 0.000000e+00 -1.000000e+00
    outer loop
      vertex   -1.012881e+02 -8.680000e+01 1.275000e+01
      vertex   -1.024881e+02 -8.800000e+01 1.275000e+01
      vertex   -1.012881e+02 -8.010000e+01 1.275000e+01
    endloop
  endfacet
  facet normal -0.000000e+00 0.000000e+00 -1.000000e+00
    outer loop
      vertex   -1.012881e+02 -8.010000e+01 1.275000e+01
      vertex   -1.024881e+02 -8.800000e+01 1.275000e+01
      vertex   -1.024881e+02 -7.890000e+01 1.275000e+01
    endloop
  endfacet
  facet normal 0.000000e+00 0.000000e+00 -1.000000e+00
    outer loop
      vertex   -1.012881e+02 -8.010000e+01 1.275000e+01
      vertex   -1.024881e+02 -7.890000e+01 1.275000e+01
      vertex   -8.651185e+01 -7.890000e+01 1.275000e+01
    endloop
  endfacet
  facet normal 0.000000e+00 -0.000000e+00 -1.000000e+00
    outer loop
      vertex   -1.012881e+02 -8.680000e+01 1.275000e+01
      vertex   -8.771185e+01 -8.680000e+01 1.275000e+01
      vertex   -1.024881e+02 -8.800000e+01 1.275000e+01
    endloop
  endfacet
  facet normal 0.000000e+00 0.000000e+00 -1.000000e+00
    outer loop
      vertex   -1.024881e+02 -8.800000e+01 1.275000e+01
      vertex   -8.771185e+01 -8.680000e+01 1.275000e+01
      vertex   -8.651185e+01 -8.800000e+01 1.275000e+01
    endloop
  endfacet
  facet normal 0.000000e+00 0.000000e+00 -1.000000e+00
    outer loop
      vertex   -8.651185e+01 -8.800000e+01 1.275000e+01
      vertex   -8.771185e+01 -8.680000e+01 1.275000e+01
      vertex   -8.771185e+01 -8.010000e+01 1.275000e+01
    endloop
  endfacet
  facet normal 0.000000e+00 0.000000e+00 -1.000000e+00
    outer loop
      vertex   -8.651185e+01 -8.800000e+01 1.275000e+01
      vertex   -8.771185e+01 -8.010000e+01 1.275000e+01
      vertex   -8.651185e+01 -7.890000e+01 1.275000e+01
    endloop
  endfacet
  facet normal 0.000000e+00 0.000000e+00 -1.000000e+00
    outer loop
      vertex   -8.651185e+01 -7.890000e+01 1.275000e+01
      vertex   -8.771185e+01 -8.010000e+01 1.275000e+01
      vertex   -1.012881e+02 -8.010000e+01 1.275000e+01
    endloop
  endfacet
  facet normal 9.363292e-01 1.462202e-15 3.511234e-01
    outer loop
      vertex   -8.651185e+01 -7.890000e+01 1.275000e+01
      vertex   -8.770000e+01 -7.890000e+01 1.591840e+01
      vertex   -8.651185e+01 -8.800000e+01 1.275000e+01
    endloop
  endfacet
  facet normal 9.363292e-01 0.000000e+00 3.511234e-01
    outer loop
      vertex   -8.651185e+01 -8.800000e+01 1.275000e+01
      vertex   -8.770000e+01 -7.890000e+01 1.591840e+01
      vertex   -8.770000e+01 -8.800000e+01 1.591840e+01
    endloop
  endfacet
  facet normal 1.000000e+00 0.000000e+00 -0.000000e+00
    outer loop
      vertex   -8.770000e+01 -7.890000e+01 1.591840e+01
      vertex   -8.770000e+01 -7.890000e+01 2.200000e+01
      vertex   -8.770000e+01 -8.800000e+01 1.591840e+01
    endloop
  endfacet
  facet normal 1.000000e+00 0.000000e+00 0.000000e+00
    outer loop
      vertex   -8.770000e+01 -8.800000e+01 1.591840e+01
      vertex   -8.770000e+01 -7.890000e+01 2.200000e+01
      vertex   -8.770000e+01 -8.800000e+01 2.200000e+01
    endloop
  endfacet
  facet normal 0.000000e+00 0.000000e+00 1.000000e+00
    outer loop
      vertex   -8.770000e+01 -7.890000e+01 2.200000e+01
      vertex   -1.013000e+02 -7.890000e+01 2.200000e+01
      vertex   -8.770000e+01 -8.800000e+01 2.200000e+01
    endloop
  endfacet
  facet normal 0.000000e+00 0.000000e+00 1.000000e+00
    outer loop
      vertex   -8.770000e+01 -8.800000e+01 2.200000e+01
      vertex   -1.013000e+02 -7.890000e+01 2.200000e+01
      vertex   -1.013000e+02 -8.800000e+01 2.200000e+01
    endloop
  endfacet
  facet normal -1.000000e+00 -0.000000e+00 0.000000e+00
    outer loop
      vertex   -1.013000e+02 -7.890000e+01 2.200000e+01
      vertex   -1.013000e+02 -7.890000e+01 1.591840e+01
      vertex   -1.013000e+02 -8.800000e+01 2.200000e+01
    endloop
  endfacet
  facet normal -1.000000e+00 0.000000e+00 0.000000e+00
    outer loop
      vertex   -1.013000e+02 -8.800000e+01 2.200000e+01
      vertex   -1.013000e+02 -7.890000e+01 1.591840e+01
      vertex   -1.013000e+02 -8.800000e+01 1.591840e+01
    endloop
  endfacet
  facet normal -9.363292e-01 0.000000e+00 3.511234e-01
    outer loop
      vertex   -1.013000e+02 -7.890000e+01 1.591840e+01
      vertex   -1.024881e+02 -7.890000e+01 1.275000e+01
      vertex   -1.013000e+02 -8.800000e+01 1.591840e+01
    endloop
  endfacet
  facet normal -9.363292e-01 0.000000e+00 3.511234e-01
    outer loop
      vertex   -1.013000e+02 -8.800000e+01 1.591840e+01
      vertex   -1.024881e+02 -7.890000e+01 1.275000e+01
      vertex   -1.024881e+02 -8.800000e+01 1.275000e+01
    endloop
  endfacet
  facet normal 0.000000e+00 -1.000000e+00 0.000000e+00
    outer loop
      vertex   -1.024881e+02 -8.800000e+01 1.275000e+01
      vertex   -8.651185e+01 -8.800000e+01 1.275000e+01
      vertex   -1.013000e+02 -8.800000e+01 1.591840e+01
    endloop
  endfacet
  facet normal 0.000000e+00 -1.000000e+00 0.000000e+00
    outer loop
      vertex   -1.013000e+02 -8.800000e+01 1.591840e+01
      vertex   -8.651185e+01 -8.800000e+01 1.275000e+01
      vertex   -8.770000e+01 -8.800000e+01 1.591840e+01
    endloop
  endfacet
  facet normal 0.000000e+00 -1.000000e+00 0.000000e+00
    outer loop
      vertex   -1.013000e+02 -8.800000e+01 1.591840e+01
      vertex   -8.770000e+01 -8.800000e+01 1.591840e+01
      vertex   -1.013000e+02 -8.800000e+01 2.200000e+01
    endloop
  endfacet
  facet normal 0.000000e+00 -1.000000e+00 0.000000e+00
    outer loop
      vertex   -1.013000e+02 -8.800000e+01 2.200000e+01
      vertex   -8.770000e+01 -8.800000e+01 1.591840e+01
      vertex   -8.770000e+01 -8.800000e+01 2.200000e+01
    endloop
  endfacet
  facet normal 0.000000e+00 1.000000e+00 -2.336696e-15
    outer loop
      vertex   -8.770000e+01 -7.890000e+01 2.200000e+01
      vertex   -8.770000e+01 -7.890000e+01 1.591840e+01
      vertex   -1.013000e+02 -7.890000e+01 2.200000e+01
    endloop
  endfacet
  facet normal 0.000000e+00 1.000000e+00 -2.336696e-15
    outer loop
      vertex   -1.013000e+02 -7.890000e+01 2.200000e+01
      vertex   -8.770000e+01 -7.890000e+01 1.591840e+01
      vertex   -1.013000e+02 -7.890000e+01 1.591840e+01
    endloop
  endfacet
  facet normal -0.000000e+00 1.000000e+00 4.485184e-15
    outer loop
      vertex   -1.013000e+02 -7.890000e+01 1.591840e+01
      vertex   -8.770000e+01 -7.890000e+01 1.591840e+01
      vertex   -1.024881e+02 -7.890000e+01 1.275000e+01
    endloop
  endfacet
  facet normal -0.000000e+00 1.000000e+00 4.485184e-15
    outer loop
      vertex   -1.024881e+02 -7.890000e+01 1.275000e+01
      vertex   -8.770000e+01 -7.890000e+01 1.591840e+01
      vertex   -8.651185e+01 -7.890000e+01 1.275000e+01
    endloop
  endfacet
endsolid
